<?xml version="1.0" ?><svg style="enable-background:new 0 0 48 48;" version="1.1" viewBox="0 0 48 48" xml:space="preserve" xmlns="http://www.w3.org/2000/svg" xmlns:xlink="http://www.w3.org/1999/xlink"><g id="Icons"><g id="Icons_13_"><path d="M38.28015,26.121h-3.0586h-0.0007v-8.7846c0-2.8861-2.337-5.2358-5.2358-5.2358h-10.3949    l1.9283,3.4097h8.4666c1.0088,0,1.8133,0.83,1.8133,1.8261l0.0058,8.7846h-3.0159c-0.5809,0-0.9483,0.6322-0.6493,1.1363    l3.6652,6.3393l0.5041,0.8715l0.5809,1.0166c0.282,0.5127,1.0082,0.5127,1.3072,0l0.6749-1.179l0.3503-0.6066l3.7165-6.4418    C39.21995,26.7532,38.86115,26.121,38.28015,26.121z" style="fill:#4AA0EC;"/><path d="M26.48145,32.4898h-8.4665c-1.0089,0-1.8134-0.83-1.8134-1.8261v-8.8149h3.0102    c0.5809,0,0.9483-0.6322,0.6493-1.1363l-3.6652-6.3393l-0.5041-0.8714l-0.581-1.0167c-0.2819-0.5126-1.0081-0.5126-1.3071,0    l-0.6749,1.179l-0.3503,0.6066l-3.7165,6.4418c-0.2819,0.5041,0.0769,1.1363,0.6579,1.1363h3.0586h0.0007v8.8149    c0,2.8861,2.337,5.2357,5.2358,5.2357h10.3948L26.48145,32.4898z" style="fill:#4AA0EC;"/></g></g></svg>