<?xml version="1.0" ?><!DOCTYPE svg  PUBLIC '-//W3C//DTD SVG 1.1//EN'  'http://www.w3.org/Graphics/SVG/1.1/DTD/svg11.dtd'><svg enable-background="new 0 0 70 70" height="70px" id="Icons" version="1.1" viewBox="0 0 70 70" width="70px" xml:space="preserve" xmlns="http://www.w3.org/2000/svg" xmlns:xlink="http://www.w3.org/1999/xlink"><g><path d="M51,19h-4v-4h-4v4H27v-4h-4v4h-4c-2.209,0-4,1.791-4,4v28c0,2.209,1.791,4,4,4h32c2.209,0,4-1.791,4-4V23   C55,20.791,53.209,19,51,19z M51,51H19V31h32V51z M51,27H19v-4h32V27z"/><rect height="4" width="4" x="35" y="35"/><rect height="4" width="4" x="43" y="35"/><rect height="4" width="4" x="35" y="43"/><rect height="4" width="4" x="27" y="43"/></g></svg>